<svg width="19" height="18" viewBox="0 0 19 18" fill="none" xmlns="http://www.w3.org/2000/svg">
<path d="M7.51262 6.60534H1.05326C0.914407 6.60534 0.776997 6.57788 0.648789 6.52455C0.520582 6.47122 0.404171 6.39308 0.30628 6.29459C0.208388 6.19611 0.130808 6.07925 0.0782496 5.95072C0.0256909 5.82219 -0.000817291 5.68455 1.9196e-05 5.54569C-0.000817291 5.40684 0.0256909 5.26919 0.0782496 5.14067C0.130808 5.01214 0.208388 4.89526 0.30628 4.79678C0.404171 4.6983 0.520582 4.62015 0.648789 4.56682C0.776997 4.51349 0.914407 4.48605 1.05326 4.48605H7.51262C7.82621 4.48605 8.12711 4.3619 8.34945 4.14075C8.57179 3.9196 8.69756 3.61943 8.69924 3.30584C8.69924 2.99114 8.57414 2.68935 8.35162 2.46683C8.1291 2.24431 7.82731 2.11929 7.51262 2.11929H5.55841C5.27737 2.11929 5.00782 2.00765 4.8091 1.80892C4.61038 1.6102 4.49865 1.34069 4.49865 1.05965C4.49865 0.778619 4.61038 0.509088 4.8091 0.310366C5.00782 0.111643 5.27737 0 5.55841 0L7.51262 0C8.38828 0.00168074 9.22761 0.350719 9.84621 0.970502C10.4648 1.59029 10.8122 2.43017 10.8122 3.30584C10.8106 4.1804 10.4623 5.01867 9.84388 5.63708C9.22547 6.25549 8.38718 6.60366 7.51262 6.60534Z" fill="#296399"/>
<path d="M15.2539 9.65735H1.05326C0.914407 9.65735 0.776997 9.6299 0.648789 9.57657C0.520582 9.52324 0.404171 9.44509 0.30628 9.34661C0.208388 9.24813 0.130808 9.13126 0.0782496 9.00273C0.0256909 8.87421 -0.000817291 8.73656 1.9196e-05 8.59771C-0.000817291 8.45885 0.0256909 8.32121 0.0782496 8.19268C0.130808 8.06415 0.208388 7.94729 0.30628 7.84881C0.404171 7.75032 0.520582 7.67217 0.648789 7.61884C0.776997 7.56551 0.914407 7.53806 1.05326 7.53806L15.2539 7.53806C15.6045 7.53807 15.9407 7.39922 16.1892 7.15189C16.4377 6.90456 16.5782 6.56888 16.5799 6.21826C16.5782 5.86765 16.4377 5.53197 16.1892 5.28464C15.9407 5.03731 15.6045 4.89846 15.2539 4.89846H13.4391C13.158 4.89846 12.8885 4.78682 12.6898 4.5881C12.491 4.38938 12.3795 4.11985 12.3795 3.83881C12.3795 3.69965 12.4068 3.56187 12.46 3.43331C12.5133 3.30475 12.5914 3.18794 12.6898 3.08954C12.7882 2.99114 12.905 2.91308 13.0335 2.85983C13.1621 2.80657 13.2999 2.77917 13.4391 2.77917L15.2855 2.77917C15.7371 2.77917 16.1843 2.86813 16.6016 3.04096C17.0188 3.21379 17.3979 3.4671 17.7173 3.78645C18.0366 4.1058 18.29 4.48493 18.4629 4.90218C18.6357 5.31943 18.7247 5.76664 18.7247 6.21826C18.7247 6.67257 18.6346 7.12238 18.4598 7.54171C18.285 7.96104 18.0288 8.34158 17.7061 8.66135C17.3834 8.98111 17.0005 9.23378 16.5796 9.40473C16.1587 9.57568 15.7082 9.66154 15.2539 9.65735Z" fill="#296399"/>
<path d="M9.52415 17.2716H6.84015C6.55911 17.2716 6.28956 17.16 6.09084 16.9612C5.89212 16.7625 5.7804 16.493 5.7804 16.212C5.78039 16.0731 5.80793 15.9356 5.86126 15.8074C5.91459 15.6792 5.99267 15.5628 6.09115 15.4649C6.18963 15.367 6.30653 15.2896 6.43505 15.237C6.56358 15.1844 6.70129 15.1578 6.84015 15.1587H9.52415C9.84784 15.157 10.1576 15.0272 10.3859 14.7977C10.6142 14.5683 10.7424 14.2577 10.7424 13.934C10.7424 13.6109 10.6141 13.3011 10.3856 13.0726C10.1571 12.8441 9.84725 12.7158 9.52415 12.7158H1.05326C0.773911 12.7158 0.505981 12.6048 0.308448 12.4073C0.110916 12.2097 1.9196e-05 11.9418 1.9196e-05 11.6625C-0.000817291 11.5236 0.0256909 11.3859 0.0782496 11.2574C0.130808 11.1289 0.208388 11.012 0.30628 10.9136C0.404171 10.8151 0.520582 10.7369 0.648789 10.6836C0.776997 10.6303 0.914407 10.6028 1.05326 10.6028H9.52415C10.4082 10.6028 11.2562 10.9536 11.8819 11.5781C12.5076 12.2027 12.86 13.05 12.8617 13.934C12.86 14.8187 12.5078 15.6666 11.8822 16.2922C11.2567 16.9177 10.4088 17.2699 9.52415 17.2716Z" fill="#296399"/>
</svg>
