<svg width="199" height="181" viewBox="0 0 199 181" fill="none" xmlns="http://www.w3.org/2000/svg">
<g filter="url(#filter0_f_0_129)">
<circle cx="127.339" cy="64.074" r="19.8651" fill="#FFC701" fill-opacity="0.5"/>
</g>
<circle cx="127.339" cy="64.7253" r="18.2138" fill="url(#paint0_linear_0_129)" stroke="url(#paint1_linear_0_129)" stroke-width="2"/>
<mask id="mask0_0_129" style="mask-type:alpha" maskUnits="userSpaceOnUse" x="108" y="56" width="39" height="28">
<path d="M146.553 64.7253C146.553 75.3368 137.95 83.9391 127.339 83.9391C116.727 83.9391 108.125 75.3368 108.125 64.7253C108.125 54.1138 115.262 56.5838 125.873 56.5838C136.485 56.5838 146.553 54.1138 146.553 64.7253Z" fill="url(#paint2_linear_0_129)"/>
</mask>
<g mask="url(#mask0_0_129)">
<g filter="url(#filter1_f_0_129)">
<path fill-rule="evenodd" clip-rule="evenodd" d="M142.482 113.899C142.536 113.899 142.59 113.9 142.645 113.9C150.379 113.9 156.648 107.63 156.648 99.8964C156.648 92.1626 150.379 85.8931 142.645 85.8931C142.59 85.8931 142.536 85.8934 142.482 85.894V85.8931H133.555C133.75 84.7281 133.852 83.5314 133.852 82.3109C133.852 70.4404 124.229 60.8175 112.359 60.8175C100.488 60.8175 90.8653 70.4404 90.8653 82.3109C90.8653 83.5789 90.9751 84.8213 91.1857 86.0291C84.3793 86.9819 79.1415 92.8275 79.1415 99.8964C79.1415 107.63 85.411 113.9 93.1448 113.9C93.1994 113.9 93.2539 113.899 93.3084 113.899L93.3077 113.9H142.482V113.899Z" fill="#E18700"/>
</g>
</g>
<g filter="url(#filter2_bd_0_129)">
<mask id="path-5-inside-1_0_129" fill="white">
<path fill-rule="evenodd" clip-rule="evenodd" d="M134.34 115.527C134.395 115.528 134.449 115.528 134.503 115.528C142.237 115.528 148.507 109.258 148.507 101.525C148.507 93.7909 142.237 87.5214 134.503 87.5214C134.449 87.5214 134.395 87.5217 134.34 87.5223V87.5214H130.723C130.854 86.5631 130.921 85.5846 130.921 84.5904C130.921 72.7199 121.298 63.097 109.428 63.097C97.5571 63.097 87.9342 72.7199 87.9342 84.5904C87.9342 85.7105 88.0199 86.8106 88.185 87.8844C87.1628 87.647 86.0977 87.5214 85.0033 87.5214C77.2695 87.5214 71 93.7909 71 101.525C71 109.258 77.2695 115.528 85.0033 115.528C85.0579 115.528 85.1124 115.528 85.1669 115.527L85.1662 115.528H134.34V115.527Z"/>
</mask>
<path fill-rule="evenodd" clip-rule="evenodd" d="M134.34 115.527C134.395 115.528 134.449 115.528 134.503 115.528C142.237 115.528 148.507 109.258 148.507 101.525C148.507 93.7909 142.237 87.5214 134.503 87.5214C134.449 87.5214 134.395 87.5217 134.34 87.5223V87.5214H130.723C130.854 86.5631 130.921 85.5846 130.921 84.5904C130.921 72.7199 121.298 63.097 109.428 63.097C97.5571 63.097 87.9342 72.7199 87.9342 84.5904C87.9342 85.7105 88.0199 86.8106 88.185 87.8844C87.1628 87.647 86.0977 87.5214 85.0033 87.5214C77.2695 87.5214 71 93.7909 71 101.525C71 109.258 77.2695 115.528 85.0033 115.528C85.0579 115.528 85.1124 115.528 85.1669 115.527L85.1662 115.528H134.34V115.527Z" fill="url(#paint3_linear_0_129)" shape-rendering="crispEdges"/>
<path d="M134.34 115.527L134.363 113.527C133.829 113.521 133.314 113.729 132.934 114.105C132.554 114.481 132.34 114.993 132.34 115.527H134.34ZM134.34 87.5223H132.34C132.34 88.0567 132.554 88.5689 132.934 88.9446C133.314 89.3203 133.829 89.5283 134.363 89.5222L134.34 87.5223ZM134.34 87.5214H136.34C136.34 86.4168 135.445 85.5214 134.34 85.5214V87.5214ZM130.723 87.5214L128.741 87.2512C128.663 87.8235 128.836 88.4015 129.216 88.8366C129.596 89.2717 130.145 89.5214 130.723 89.5214V87.5214ZM88.185 87.8844L87.7324 89.8326C88.379 89.9828 89.0579 89.8024 89.5447 89.3511C90.0315 88.8999 90.2627 88.2365 90.1618 87.5804L88.185 87.8844ZM85.1669 115.527L86.7363 116.767C87.214 116.162 87.3018 115.337 86.9618 114.645C86.6219 113.953 85.9147 113.518 85.1441 113.527L85.1669 115.527ZM85.1662 115.528L83.5968 114.288C83.1216 114.89 83.032 115.71 83.3662 116.4C83.7004 117.09 84.3996 117.528 85.1662 117.528V115.528ZM134.34 115.528V117.528C135.445 117.528 136.34 116.633 136.34 115.528H134.34ZM134.318 117.527C134.38 117.528 134.441 117.528 134.503 117.528V113.528C134.457 113.528 134.41 113.528 134.363 113.527L134.318 117.527ZM134.503 117.528C143.342 117.528 150.507 110.363 150.507 101.525H146.507C146.507 108.154 141.133 113.528 134.503 113.528V117.528ZM150.507 101.525C150.507 92.6863 143.342 85.5214 134.503 85.5214V89.5214C141.133 89.5214 146.507 94.8955 146.507 101.525H150.507ZM134.503 85.5214C134.441 85.5214 134.38 85.5218 134.318 85.5225L134.363 89.5222C134.41 89.5217 134.457 89.5214 134.503 89.5214V85.5214ZM132.34 87.5214V87.5223H136.34V87.5214H132.34ZM130.723 89.5214H134.34V85.5214H130.723V89.5214ZM132.705 87.7916C132.847 86.744 132.921 85.6753 132.921 84.5904H128.921C128.921 85.494 128.86 86.3822 128.741 87.2512L132.705 87.7916ZM132.921 84.5904C132.921 71.6154 122.403 61.097 109.428 61.097V65.097C120.194 65.097 128.921 73.8245 128.921 84.5904H132.921ZM109.428 61.097C96.4525 61.097 85.9342 71.6154 85.9342 84.5904H89.9342C89.9342 73.8245 98.6617 65.097 109.428 65.097V61.097ZM85.9342 84.5904C85.9342 85.8127 86.0277 87.0144 86.2083 88.1885L90.1618 87.5804C90.012 86.6068 89.9342 85.6084 89.9342 84.5904H85.9342ZM88.6376 85.9363C87.4681 85.6646 86.2512 85.5214 85.0033 85.5214V89.5214C85.9443 89.5214 86.8576 89.6293 87.7324 89.8326L88.6376 85.9363ZM85.0033 85.5214C76.1649 85.5214 69 92.6863 69 101.525H73C73 94.8955 78.3741 89.5214 85.0033 89.5214V85.5214ZM69 101.525C69 110.363 76.1649 117.528 85.0033 117.528V113.528C78.3741 113.528 73 108.154 73 101.525H69ZM85.0033 117.528C85.0655 117.528 85.1277 117.528 85.1897 117.527L85.1441 113.527C85.0972 113.528 85.0503 113.528 85.0033 113.528V117.528ZM86.7355 116.768L86.7363 116.767L83.5975 114.287L83.5968 114.288L86.7355 116.768ZM134.34 113.528H85.1662V117.528H134.34V113.528ZM132.34 115.527V115.528H136.34V115.527H132.34Z" fill="url(#paint4_linear_0_129)" mask="url(#path-5-inside-1_0_129)"/>
</g>
<g filter="url(#filter3_bd_0_129)">
<mask id="path-7-inside-2_0_129" fill="white">
<path fill-rule="evenodd" clip-rule="evenodd" d="M159.762 100.988C159.801 100.988 159.841 100.988 159.88 100.988C165.469 100.988 170 96.4574 170 90.8683C170 85.2791 165.469 80.7482 159.88 80.7482C159.841 80.7482 159.801 80.7485 159.762 80.7489V80.7482H157.148C157.242 80.0557 157.291 79.3486 157.291 78.6301C157.291 70.0514 150.337 63.097 141.758 63.097C133.179 63.097 126.225 70.0514 126.225 78.6301C126.225 79.4395 126.287 80.2346 126.406 81.0106C125.668 80.839 124.898 80.7482 124.107 80.7482C118.518 80.7482 113.987 85.2791 113.987 90.8683C113.987 96.4574 118.518 100.988 124.107 100.988C124.146 100.988 124.186 100.988 124.225 100.988L124.225 100.988H159.762V100.988Z"/>
</mask>
<path fill-rule="evenodd" clip-rule="evenodd" d="M159.762 100.988C159.801 100.988 159.841 100.988 159.88 100.988C165.469 100.988 170 96.4574 170 90.8683C170 85.2791 165.469 80.7482 159.88 80.7482C159.841 80.7482 159.801 80.7485 159.762 80.7489V80.7482H157.148C157.242 80.0557 157.291 79.3486 157.291 78.6301C157.291 70.0514 150.337 63.097 141.758 63.097C133.179 63.097 126.225 70.0514 126.225 78.6301C126.225 79.4395 126.287 80.2346 126.406 81.0106C125.668 80.839 124.898 80.7482 124.107 80.7482C118.518 80.7482 113.987 85.2791 113.987 90.8683C113.987 96.4574 118.518 100.988 124.107 100.988C124.146 100.988 124.186 100.988 124.225 100.988L124.225 100.988H159.762V100.988Z" fill="url(#paint5_linear_0_129)" shape-rendering="crispEdges"/>
<path d="M159.762 100.988L159.785 98.9877C159.251 98.9817 158.736 99.1897 158.356 99.5654C157.976 99.9411 157.762 100.453 157.762 100.988H159.762ZM159.762 80.7489H157.762C157.762 81.2833 157.976 81.7954 158.356 82.1712C158.736 82.5469 159.251 82.7549 159.785 82.7488L159.762 80.7489ZM159.762 80.7482H161.762C161.762 79.6437 160.867 78.7482 159.762 78.7482V80.7482ZM157.148 80.7482L155.166 80.478C155.088 81.0503 155.261 81.6283 155.641 82.0635C156.021 82.4986 156.57 82.7482 157.148 82.7482V80.7482ZM126.406 81.0106L125.954 82.9587C126.6 83.109 127.279 82.9286 127.766 82.4773C128.253 82.0261 128.484 81.3627 128.383 80.7066L126.406 81.0106ZM124.225 100.988L125.794 102.228C126.272 101.624 126.36 100.798 126.02 100.106C125.68 99.414 124.973 98.9789 124.202 98.9877L124.225 100.988ZM124.225 100.988L122.656 99.7476C122.18 100.349 122.09 101.169 122.424 101.86C122.758 102.55 123.458 102.988 124.225 102.988V100.988ZM159.762 100.988V102.988C160.867 102.988 161.762 102.093 161.762 100.988H159.762ZM159.74 102.987C159.786 102.988 159.833 102.988 159.88 102.988V98.9883C159.848 98.9883 159.817 98.9881 159.785 98.9877L159.74 102.987ZM159.88 102.988C166.574 102.988 172 97.562 172 90.8683H168C168 95.3528 164.365 98.9883 159.88 98.9883V102.988ZM172 90.8683C172 84.1746 166.574 78.7482 159.88 78.7482V82.7482C164.365 82.7482 168 86.3837 168 90.8683H172ZM159.88 78.7482C159.833 78.7482 159.786 78.7485 159.74 78.749L159.785 82.7488C159.817 82.7484 159.848 82.7482 159.88 82.7482V78.7482ZM157.762 80.7482V80.7489H161.762V80.7482H157.762ZM157.148 82.7482H159.762V78.7482H157.148V82.7482ZM159.13 81.0184C159.236 80.2366 159.291 79.4392 159.291 78.6301H155.291C155.291 79.2579 155.249 79.8748 155.166 80.478L159.13 81.0184ZM159.291 78.6301C159.291 68.9468 151.441 61.097 141.758 61.097V65.097C149.232 65.097 155.291 71.156 155.291 78.6301H159.291ZM141.758 61.097C132.075 61.097 124.225 68.9468 124.225 78.6301H128.225C128.225 71.156 134.284 65.097 141.758 65.097V61.097ZM124.225 78.6301C124.225 79.5417 124.295 80.4383 124.43 81.3146L128.383 80.7066C128.279 80.0308 128.225 79.3374 128.225 78.6301H124.225ZM126.859 79.0625C125.973 78.8566 125.051 78.7482 124.107 78.7482V82.7482C124.744 82.7482 125.362 82.8213 125.954 82.9587L126.859 79.0625ZM124.107 78.7482C117.413 78.7482 111.987 84.1746 111.987 90.8683H115.987C115.987 86.3837 119.622 82.7482 124.107 82.7482V78.7482ZM111.987 90.8683C111.987 97.562 117.413 102.988 124.107 102.988V98.9883C119.622 98.9883 115.987 95.3528 115.987 90.8683H111.987ZM124.107 102.988C124.154 102.988 124.201 102.988 124.248 102.987L124.202 98.9877C124.171 98.9881 124.139 98.9883 124.107 98.9883V102.988ZM125.793 102.229L125.794 102.228L122.656 99.7469L122.656 99.7476L125.793 102.229ZM159.762 98.9883H124.225V102.988H159.762V98.9883ZM157.762 100.988V100.988H161.762V100.988H157.762Z" fill="url(#paint6_linear_0_129)" mask="url(#path-7-inside-2_0_129)"/>
</g>
<defs>
<filter id="filter0_f_0_129" x="63.4738" y="0.208893" width="127.73" height="127.73" filterUnits="userSpaceOnUse" color-interpolation-filters="sRGB">
<feFlood flood-opacity="0" result="BackgroundImageFix"/>
<feBlend mode="normal" in="SourceGraphic" in2="BackgroundImageFix" result="shape"/>
<feGaussianBlur stdDeviation="22" result="effect1_foregroundBlur_0_129"/>
</filter>
<filter id="filter1_f_0_129" x="65.1415" y="46.8175" width="105.507" height="81.0822" filterUnits="userSpaceOnUse" color-interpolation-filters="sRGB">
<feFlood flood-opacity="0" result="BackgroundImageFix"/>
<feBlend mode="normal" in="SourceGraphic" in2="BackgroundImageFix" result="shape"/>
<feGaussianBlur stdDeviation="7" result="effect1_foregroundBlur_0_129"/>
</filter>
<filter id="filter2_bd_0_129" x="0" y="28.097" width="177.507" height="152.431" filterUnits="userSpaceOnUse" color-interpolation-filters="sRGB">
<feFlood flood-opacity="0" result="BackgroundImageFix"/>
<feGaussianBlur in="BackgroundImageFix" stdDeviation="7"/>
<feComposite in2="SourceAlpha" operator="in" result="effect1_backgroundBlur_0_129"/>
<feColorMatrix in="SourceAlpha" type="matrix" values="0 0 0 0 0 0 0 0 0 0 0 0 0 0 0 0 0 0 127 0" result="hardAlpha"/>
<feOffset dx="-21" dy="15"/>
<feGaussianBlur stdDeviation="25"/>
<feComposite in2="hardAlpha" operator="out"/>
<feColorMatrix type="matrix" values="0 0 0 0 0.113725 0 0 0 0 0.14902 0 0 0 0 0.27451 0 0 0 0.25 0"/>
<feBlend mode="normal" in2="effect1_backgroundBlur_0_129" result="effect2_dropShadow_0_129"/>
<feBlend mode="normal" in="SourceGraphic" in2="effect2_dropShadow_0_129" result="shape"/>
</filter>
<filter id="filter3_bd_0_129" x="42.9868" y="28.097" width="156.013" height="137.891" filterUnits="userSpaceOnUse" color-interpolation-filters="sRGB">
<feFlood flood-opacity="0" result="BackgroundImageFix"/>
<feGaussianBlur in="BackgroundImageFix" stdDeviation="7"/>
<feComposite in2="SourceAlpha" operator="in" result="effect1_backgroundBlur_0_129"/>
<feColorMatrix in="SourceAlpha" type="matrix" values="0 0 0 0 0 0 0 0 0 0 0 0 0 0 0 0 0 0 127 0" result="hardAlpha"/>
<feOffset dx="-21" dy="15"/>
<feGaussianBlur stdDeviation="25"/>
<feComposite in2="hardAlpha" operator="out"/>
<feColorMatrix type="matrix" values="0 0 0 0 0.113438 0 0 0 0 0.148981 0 0 0 0 0.275 0 0 0 0.25 0"/>
<feBlend mode="normal" in2="effect1_backgroundBlur_0_129" result="effect2_dropShadow_0_129"/>
<feBlend mode="normal" in="SourceGraphic" in2="effect2_dropShadow_0_129" result="shape"/>
</filter>
<linearGradient id="paint0_linear_0_129" x1="127.339" y1="45.5115" x2="127.339" y2="83.9391" gradientUnits="userSpaceOnUse">
<stop stop-color="#FFE600"/>
<stop offset="1" stop-color="#FF7A00"/>
</linearGradient>
<linearGradient id="paint1_linear_0_129" x1="127.339" y1="45.5115" x2="127.339" y2="83.9391" gradientUnits="userSpaceOnUse">
<stop stop-color="white"/>
<stop offset="1" stop-color="white" stop-opacity="0"/>
</linearGradient>
<linearGradient id="paint2_linear_0_129" x1="127.339" y1="45.5115" x2="127.339" y2="83.9391" gradientUnits="userSpaceOnUse">
<stop stop-color="#FFD600"/>
<stop offset="1" stop-color="#FF7A00"/>
</linearGradient>
<linearGradient id="paint3_linear_0_129" x1="109.753" y1="46.3256" x2="109.753" y2="122.855" gradientUnits="userSpaceOnUse">
<stop stop-color="white"/>
<stop offset="1" stop-color="white" stop-opacity="0"/>
</linearGradient>
<linearGradient id="paint4_linear_0_129" x1="109.753" y1="63.097" x2="109.753" y2="115.528" gradientUnits="userSpaceOnUse">
<stop stop-color="white"/>
<stop offset="1" stop-color="white" stop-opacity="0"/>
</linearGradient>
<linearGradient id="paint5_linear_0_129" x1="144.599" y1="64.2368" x2="144.599" y2="105.27" gradientUnits="userSpaceOnUse">
<stop stop-color="white"/>
<stop offset="1" stop-color="white" stop-opacity="0"/>
</linearGradient>
<linearGradient id="paint6_linear_0_129" x1="141.993" y1="63.097" x2="141.993" y2="100.988" gradientUnits="userSpaceOnUse">
<stop stop-color="white"/>
<stop offset="1" stop-color="white" stop-opacity="0"/>
</linearGradient>
</defs>
</svg>
