<svg width="15" height="16" viewBox="0 0 15 16" fill="none" xmlns="http://www.w3.org/2000/svg">
<path d="M14.6854 7.625L11.3424 7.33553L11.3055 7.14474L14.2968 5.53289C14.3821 5.48736 14.4484 5.4095 14.4826 5.31457C14.5168 5.21963 14.5165 5.11448 14.4819 5.01973C14.446 4.92485 14.3774 4.84817 14.2903 4.80537C14.2032 4.76257 14.104 4.75688 14.0131 4.78948L10.8121 5.84869C10.7689 5.77632 10.7258 5.69737 10.6826 5.63158L12.8475 2.90131C12.913 2.82894 12.9496 2.73223 12.9496 2.63158C12.9496 2.53093 12.913 2.43422 12.8475 2.36184C12.7786 2.29147 12.6869 2.25219 12.5915 2.25219C12.4961 2.25219 12.4044 2.29147 12.3355 2.36184L9.78196 4.67105L9.62777 4.56579L10.6764 1.16447C10.7056 1.06915 10.7002 0.96564 10.6613 0.874321C10.6225 0.783001 10.5531 0.710484 10.4666 0.671048C10.3804 0.629372 10.2824 0.624562 10.1929 0.657606C10.1034 0.69065 10.0292 0.759035 9.98554 0.848682L8.42509 4.01974L8.15374 3.93421L7.87622 0.368422C7.86846 0.267787 7.82534 0.173966 7.75561 0.105679C7.68587 0.0373932 7.59459 -0.000337456 7.49992 2.27441e-06C7.40567 0.0011527 7.31518 0.0393893 7.24575 0.107386C7.17631 0.175383 7.13289 0.268346 7.12378 0.368422L6.84611 3.93421L6.66737 3.96711L5.15615 0.776313C5.11242 0.686534 5.03906 0.617292 4.95016 0.582035C4.86126 0.546778 4.76329 0.548026 4.6752 0.585528C4.58765 0.623761 4.51674 0.695773 4.47674 0.787215C4.43673 0.878658 4.4305 0.982818 4.45927 1.07895L5.45234 4.5L5.24876 4.63816L2.69523 2.32895C2.62564 2.26005 2.53434 2.22176 2.43939 2.22176C2.34445 2.22176 2.25299 2.26005 2.18341 2.32895C2.11784 2.40132 2.08116 2.49804 2.08116 2.59868C2.08116 2.69933 2.11784 2.79605 2.18341 2.86842L4.35446 5.59868C4.31602 5.65088 4.28088 5.70583 4.24951 5.76316L1.06701 4.63816C0.975995 4.6087 0.877989 4.61586 0.791598 4.6583C0.705207 4.70074 0.636426 4.7755 0.598253 4.86842C0.561165 4.96143 0.558407 5.06595 0.590423 5.16109C0.622439 5.25622 0.686889 5.33496 0.770968 5.38158L3.74386 7.04605C3.71886 7.12983 3.70024 7.21564 3.6883 7.30263L0.34543 7.5921C0.251084 7.60335 0.163768 7.65105 0.100136 7.7262C0.0365028 7.80135 0.000919551 7.89874 0 8C0.00107852 8.10054 0.0368405 8.19711 0.100587 8.27118C0.164334 8.34525 0.25161 8.39159 0.34543 8.40131L3.6883 8.69079L3.72534 8.88816L0.733926 10.5C0.648138 10.543 0.581514 10.6199 0.54811 10.7145C0.514707 10.8091 0.517136 10.9139 0.555037 11.0066C0.589729 11.1012 0.656813 11.1782 0.742659 11.2222C0.828505 11.2661 0.926728 11.2737 1.01762 11.2434L4.21879 10.1776C4.25897 10.2535 4.30431 10.326 4.35446 10.3947L2.18341 13.125C2.11881 13.1992 2.08282 13.2968 2.08282 13.398C2.08282 13.4993 2.11881 13.5968 2.18341 13.6711C2.25364 13.7386 2.34485 13.7759 2.43939 13.7759C2.53393 13.7759 2.62499 13.7386 2.69523 13.6711L5.24876 11.3553L5.40295 11.4671L4.35446 14.8618C4.32502 14.9581 4.33016 15.0626 4.36892 15.155C4.40768 15.2474 4.47718 15.3211 4.56407 15.3618C4.65127 15.4014 4.74924 15.4044 4.83843 15.3703C4.92762 15.3361 5.00147 15.2673 5.04517 15.1776L6.60563 12.0066C6.68449 12.0304 6.76482 12.048 6.84611 12.0592L7.12378 15.625C7.13145 15.7263 7.1742 15.8208 7.24379 15.8902C7.31337 15.9595 7.4047 15.9987 7.49992 16C7.59558 16.0002 7.68768 15.9616 7.75757 15.8919C7.82746 15.8223 7.86995 15.7268 7.87622 15.625L8.15374 12.0592L8.33263 12.0263L9.8437 15.2171C9.88635 15.308 9.95965 15.3782 10.0489 15.4136C10.1382 15.449 10.2369 15.447 10.3248 15.4079C10.4133 15.3709 10.485 15.2991 10.5252 15.2072C10.5654 15.1154 10.571 15.0106 10.5407 14.9145L9.54766 11.5L9.75124 11.3553L12.3046 13.6711C12.3742 13.74 12.4657 13.7782 12.5606 13.7782C12.6556 13.7782 12.747 13.74 12.8166 13.6711C12.8812 13.5968 12.917 13.4993 12.917 13.398C12.917 13.2968 12.8812 13.1992 12.8166 13.125L10.6517 10.3947L10.7503 10.2368L13.939 11.3553C14.0291 11.3876 14.1274 11.3817 14.2135 11.3388C14.2996 11.296 14.367 11.2194 14.4016 11.125C14.4387 11.032 14.4416 10.9275 14.4096 10.8323C14.3776 10.7372 14.3131 10.6585 14.229 10.6118L11.2623 8.95395C11.2623 8.86842 11.2994 8.78289 11.3117 8.69079L14.6546 8.40131C14.7484 8.39159 14.8355 8.34525 14.8993 8.27118C14.963 8.19711 14.9989 8.10054 15 8C14.9934 7.90934 14.959 7.82352 14.9021 7.75575C14.8453 7.68799 14.7692 7.64205 14.6854 7.625ZM7.53697 9.88816C7.07618 9.88643 6.63467 9.6904 6.30884 9.34285C5.98301 8.9953 5.79925 8.52441 5.79762 8.03289C5.79762 7.54085 5.98085 7.06896 6.30703 6.72103C6.63321 6.3731 7.07568 6.17763 7.53697 6.17763C7.99826 6.17763 8.44072 6.3731 8.7669 6.72103C9.09309 7.06896 9.27631 7.54085 9.27631 8.03289C9.27631 8.52494 9.09309 8.99684 8.7669 9.34477C8.44072 9.6927 7.99826 9.88816 7.53697 9.88816Z" fill="#296399"/>
</svg>
